<svg width="50" height="50" viewBox="0 0 50 50" fill="none" xmlns="http://www.w3.org/2000/svg">
<g filter="url(#filter0_d_23_549)">
<circle cx="25" cy="21" r="21" fill="#820000"/>
<path d="M31.65 14.6364H31.6621M18.9546 8.90912H31.0455C34.3843 8.90912 37.0909 11.7582 37.0909 15.2728V28C37.0909 31.5146 34.3843 34.3637 31.0455 34.3637H18.9546C15.6158 34.3637 12.9091 31.5146 12.9091 28V15.2728C12.9091 11.7582 15.6158 8.90912 18.9546 8.90912ZM29.8364 20.8346C29.9856 21.8938 29.8137 22.9756 29.3452 23.926C28.8767 24.8765 28.1354 25.6473 27.2267 26.1287C26.3181 26.6101 25.2883 26.7777 24.284 26.6076C23.2796 26.4375 22.3518 25.9383 21.6325 25.1811C20.9132 24.424 20.439 23.4473 20.2774 22.3901C20.1158 21.3329 20.275 20.249 20.7323 19.2925C21.1897 18.336 21.9219 17.5557 22.8249 17.0625C23.7278 16.5693 24.7555 16.3884 25.7618 16.5455C26.7882 16.7057 27.7384 17.2092 28.4722 17.9815C29.2059 18.7539 29.6842 19.7541 29.8364 20.8346Z" stroke="#F5F5F5" stroke-width="2" stroke-linecap="round" stroke-linejoin="round"/>
</g>
<defs>
<filter id="filter0_d_23_549" x="0" y="0" width="50" height="50" filterUnits="userSpaceOnUse" color-interpolation-filters="sRGB">
<feFlood flood-opacity="0" result="BackgroundImageFix"/>
<feColorMatrix in="SourceAlpha" type="matrix" values="0 0 0 0 0 0 0 0 0 0 0 0 0 0 0 0 0 0 127 0" result="hardAlpha"/>
<feOffset dy="4"/>
<feGaussianBlur stdDeviation="2"/>
<feComposite in2="hardAlpha" operator="out"/>
<feColorMatrix type="matrix" values="0 0 0 0 0 0 0 0 0 0 0 0 0 0 0 0 0 0 0.25 0"/>
<feBlend mode="normal" in2="BackgroundImageFix" result="effect1_dropShadow_23_549"/>
<feBlend mode="normal" in="SourceGraphic" in2="effect1_dropShadow_23_549" result="shape"/>
</filter>
</defs>
</svg>
