<svg width="51" height="50" viewBox="0 0 51 50" fill="none" xmlns="http://www.w3.org/2000/svg">
<g filter="url(#filter0_d_23_550)">
<circle cx="25.7273" cy="21" r="21" fill="#820000"/>
<path d="M30.5637 16.1436C32.4877 16.1436 34.3329 16.9058 35.6934 18.2625C37.0539 19.6192 37.8182 21.4593 37.8182 23.378V31.8182H32.9819V23.378C32.9819 22.7385 32.7271 22.1251 32.2736 21.6728C31.8201 21.2206 31.205 20.9665 30.5637 20.9665C29.9223 20.9665 29.3073 21.2206 28.8538 21.6728C28.4003 22.1251 28.1455 22.7385 28.1455 23.378V31.8182H23.3091V23.378C23.3091 21.4593 24.0735 19.6192 25.4339 18.2625C26.7944 16.9058 28.6397 16.1436 30.5637 16.1436Z" stroke="#D9D9D9" stroke-width="2" stroke-linecap="round" stroke-linejoin="round"/>
<path d="M18.4728 17.3493H13.6364V31.8182H18.4728V17.3493Z" stroke="#D9D9D9" stroke-width="2" stroke-linecap="round" stroke-linejoin="round"/>
<path d="M16.0546 13.7321C17.3901 13.7321 18.4728 12.6524 18.4728 11.3206C18.4728 9.98878 17.3901 8.90912 16.0546 8.90912C14.7191 8.90912 13.6364 9.98878 13.6364 11.3206C13.6364 12.6524 14.7191 13.7321 16.0546 13.7321Z" stroke="#D9D9D9" stroke-width="2" stroke-linecap="round" stroke-linejoin="round"/>
</g>
<defs>
<filter id="filter0_d_23_550" x="0.727295" y="0" width="50" height="50" filterUnits="userSpaceOnUse" color-interpolation-filters="sRGB">
<feFlood flood-opacity="0" result="BackgroundImageFix"/>
<feColorMatrix in="SourceAlpha" type="matrix" values="0 0 0 0 0 0 0 0 0 0 0 0 0 0 0 0 0 0 127 0" result="hardAlpha"/>
<feOffset dy="4"/>
<feGaussianBlur stdDeviation="2"/>
<feComposite in2="hardAlpha" operator="out"/>
<feColorMatrix type="matrix" values="0 0 0 0 0 0 0 0 0 0 0 0 0 0 0 0 0 0 0.25 0"/>
<feBlend mode="normal" in2="BackgroundImageFix" result="effect1_dropShadow_23_550"/>
<feBlend mode="normal" in="SourceGraphic" in2="effect1_dropShadow_23_550" result="shape"/>
</filter>
</defs>
</svg>
